STARTFONT 2.1
FONT -FontForge-SansSerif-Regular-R-Normal-SansSerif-16-150-75-75-P-69-ISO8859-15
SIZE 15 75 75
FONTBOUNDINGBOX 13 16 -2 -2
COMMENT "Generated by fontforge, http://fontforge.sourceforge.net"
COMMENT "Copyright (c) 2017, Stephanie Gawroriski,,,"
STARTPROPERTIES 33
FOUNDRY "FontForge"
FAMILY_NAME "SansSerif"
WEIGHT_NAME "Regular"
SLANT "R"
SETWIDTH_NAME "Normal"
ADD_STYLE_NAME "SansSerif"
PIXEL_SIZE 16
POINT_SIZE 150
RESOLUTION_X 75
RESOLUTION_Y 75
SPACING "P"
AVERAGE_WIDTH 69
CHARSET_REGISTRY "ISO8859"
CHARSET_ENCODING "15"
FONTNAME_REGISTRY ""
CHARSET_COLLECTIONS "iso8859-15"
FONT_NAME "sansserif"
FACE_NAME "SquirrelJME Sans Serif"
COPYRIGHT "Copyright (c) 2017, Stephanie Gawroriski,,,"
FONT_VERSION "001.000"
FONT_ASCENT 13
FONT_DESCENT 3
UNDERLINE_POSITION -2
UNDERLINE_THICKNESS 1
CAP_HEIGHT 10
RAW_ASCENT 800
RAW_DESCENT 200
NORM_SPACE 4
RELATIVE_WEIGHT 40
RELATIVE_SETWIDTH 50
FIGURE_WIDTH -1
AVG_LOWERCASE_WIDTH 47
AVG_UPPERCASE_WIDTH 82
ENDPROPERTIES
CHARS 127
STARTCHAR uni0000
ENCODING 0
SWIDTH 812 0
DWIDTH 13 0
BBX 11 11 0 0
BITMAP
0400
0E00
1F00
3180
6EC0
FEE0
79C0
3F80
1B00
0E00
0400
ENDCHAR
STARTCHAR space
ENCODING 32
SWIDTH 250 0
DWIDTH 4 0
BBX 1 1 0 0
BITMAP
00
ENDCHAR
STARTCHAR exclam
ENCODING 33
SWIDTH 125 0
DWIDTH 2 0
BBX 1 11 0 0
BITMAP
80
80
80
80
80
80
80
00
00
80
80
ENDCHAR
STARTCHAR quotedbl
ENCODING 34
SWIDTH 312 0
DWIDTH 5 0
BBX 3 2 0 11
BITMAP
A0
A0
ENDCHAR
STARTCHAR numbersign
ENCODING 35
SWIDTH 625 0
DWIDTH 10 0
BBX 8 11 0 0
BITMAP
24
24
24
FF
24
24
24
FF
24
24
24
ENDCHAR
STARTCHAR dollar
ENCODING 36
SWIDTH 500 0
DWIDTH 8 0
BBX 6 15 0 -2
BITMAP
20
20
78
A4
A0
A0
A0
78
24
24
24
A4
78
20
20
ENDCHAR
STARTCHAR percent
ENCODING 37
SWIDTH 812 0
DWIDTH 13 0
BBX 11 11 0 0
BITMAP
3020
4840
4880
3100
0200
0400
08C0
1120
2120
40C0
8000
ENDCHAR
STARTCHAR ampersand
ENCODING 38
SWIDTH 687 0
DWIDTH 11 0
BBX 9 11 0 0
BITMAP
3C00
4200
4000
4000
2000
1000
2800
4500
8200
8500
7880
ENDCHAR
STARTCHAR quotesingle
ENCODING 39
SWIDTH 187 0
DWIDTH 3 0
BBX 1 2 0 11
BITMAP
80
80
ENDCHAR
STARTCHAR parenleft
ENCODING 40
SWIDTH 250 0
DWIDTH 4 0
BBX 3 11 0 0
BITMAP
20
40
80
80
80
80
80
80
80
40
20
ENDCHAR
STARTCHAR parenright
ENCODING 41
SWIDTH 312 0
DWIDTH 5 0
BBX 3 11 0 0
BITMAP
80
40
20
20
20
20
20
20
20
40
80
ENDCHAR
STARTCHAR asterisk
ENCODING 42
SWIDTH 437 0
DWIDTH 7 0
BBX 5 5 0 8
BITMAP
A8
70
F8
70
A8
ENDCHAR
STARTCHAR plus
ENCODING 43
SWIDTH 437 0
DWIDTH 7 0
BBX 5 5 0 4
BITMAP
20
20
F8
20
20
ENDCHAR
STARTCHAR comma
ENCODING 44
SWIDTH 187 0
DWIDTH 3 0
BBX 2 3 0 -2
BITMAP
C0
C0
40
ENDCHAR
STARTCHAR hyphen
ENCODING 45
SWIDTH 312 0
DWIDTH 5 0
BBX 3 1 0 6
BITMAP
E0
ENDCHAR
STARTCHAR period
ENCODING 46
SWIDTH 187 0
DWIDTH 3 0
BBX 2 2 0 0
BITMAP
C0
C0
ENDCHAR
STARTCHAR slash
ENCODING 47
SWIDTH 500 0
DWIDTH 8 0
BBX 6 11 0 0
BITMAP
04
04
08
08
10
10
20
20
40
40
80
ENDCHAR
STARTCHAR zero
ENCODING 48
SWIDTH 437 0
DWIDTH 7 0
BBX 5 11 0 0
BITMAP
70
88
88
88
A8
A8
A8
88
88
88
70
ENDCHAR
STARTCHAR one
ENCODING 49
SWIDTH 437 0
DWIDTH 7 0
BBX 5 11 0 0
BITMAP
E0
20
20
20
20
20
20
20
20
20
F8
ENDCHAR
STARTCHAR two
ENCODING 50
SWIDTH 437 0
DWIDTH 7 0
BBX 5 11 0 0
BITMAP
70
88
08
08
08
10
20
40
80
80
F8
ENDCHAR
STARTCHAR three
ENCODING 51
SWIDTH 437 0
DWIDTH 7 0
BBX 5 11 0 0
BITMAP
70
88
08
08
08
70
08
08
08
88
70
ENDCHAR
STARTCHAR four
ENCODING 52
SWIDTH 437 0
DWIDTH 7 0
BBX 5 11 0 0
BITMAP
88
88
88
88
88
F8
08
08
08
08
08
ENDCHAR
STARTCHAR five
ENCODING 53
SWIDTH 437 0
DWIDTH 7 0
BBX 5 11 0 0
BITMAP
F8
80
80
80
F0
08
08
08
08
88
70
ENDCHAR
STARTCHAR six
ENCODING 54
SWIDTH 1000 0
DWIDTH 16 0
BBX 5 11 0 0
BITMAP
78
80
80
80
80
F0
88
88
88
88
70
ENDCHAR
STARTCHAR seven
ENCODING 55
SWIDTH 437 0
DWIDTH 7 0
BBX 5 11 0 0
BITMAP
F8
08
08
08
08
08
08
08
08
08
08
ENDCHAR
STARTCHAR colon
ENCODING 58
SWIDTH 250 0
DWIDTH 4 0
BBX 2 9 0 0
BITMAP
C0
C0
00
00
00
00
00
C0
C0
ENDCHAR
STARTCHAR semicolon
ENCODING 59
SWIDTH 250 0
DWIDTH 4 0
BBX 2 10 0 -1
BITMAP
C0
C0
00
00
00
00
00
C0
C0
40
ENDCHAR
STARTCHAR question
ENCODING 63
SWIDTH 500 0
DWIDTH 8 0
BBX 6 11 0 0
BITMAP
78
84
04
04
04
18
20
20
00
00
20
ENDCHAR
STARTCHAR at
ENCODING 64
SWIDTH 625 0
DWIDTH 10 0
BBX 8 11 0 0
BITMAP
7E
81
99
A5
A5
A5
A5
A5
9E
80
7F
ENDCHAR
STARTCHAR A
ENCODING 65
SWIDTH 562 0
DWIDTH 9 0
BBX 7 11 0 0
BITMAP
38
44
82
82
82
FE
82
82
82
82
82
ENDCHAR
STARTCHAR B
ENCODING 66
SWIDTH 562 0
DWIDTH 9 0
BBX 7 11 0 0
BITMAP
F8
84
82
82
84
F8
84
82
82
82
FC
ENDCHAR
STARTCHAR C
ENCODING 67
SWIDTH 500 0
DWIDTH 8 0
BBX 7 11 0 0
BITMAP
3C
42
80
80
80
80
80
80
80
42
3C
ENDCHAR
STARTCHAR D
ENCODING 68
SWIDTH 562 0
DWIDTH 9 0
BBX 7 11 0 0
BITMAP
F8
84
82
82
82
82
82
82
82
82
FC
ENDCHAR
STARTCHAR E
ENCODING 69
SWIDTH 562 0
DWIDTH 9 0
BBX 7 11 0 0
BITMAP
FE
80
80
80
80
F0
80
80
80
80
FE
ENDCHAR
STARTCHAR F
ENCODING 70
SWIDTH 562 0
DWIDTH 9 0
BBX 7 11 0 0
BITMAP
FE
80
80
80
80
F0
80
80
80
80
80
ENDCHAR
STARTCHAR G
ENCODING 71
SWIDTH 500 0
DWIDTH 8 0
BBX 6 11 0 0
BITMAP
78
84
80
80
80
80
9C
84
84
84
78
ENDCHAR
STARTCHAR H
ENCODING 72
SWIDTH 500 0
DWIDTH 8 0
BBX 6 11 0 0
BITMAP
84
84
84
84
84
FC
84
84
84
84
84
ENDCHAR
STARTCHAR I
ENCODING 73
SWIDTH 188 0
DWIDTH 3 0
BBX 1 11 0 0
BITMAP
80
80
80
80
80
80
80
80
80
80
80
ENDCHAR
STARTCHAR J
ENCODING 74
SWIDTH 500 0
DWIDTH 8 0
BBX 6 11 0 0
BITMAP
04
04
04
04
04
04
04
84
84
44
38
ENDCHAR
STARTCHAR K
ENCODING 75
SWIDTH 500 0
DWIDTH 8 0
BBX 6 11 0 0
BITMAP
84
84
88
90
A0
C0
A0
90
88
84
84
ENDCHAR
STARTCHAR L
ENCODING 76
SWIDTH 500 0
DWIDTH 8 0
BBX 6 11 0 0
BITMAP
80
80
80
80
80
80
80
80
80
80
FC
ENDCHAR
STARTCHAR M
ENCODING 77
SWIDTH 562 0
DWIDTH 9 0
BBX 7 11 0 0
BITMAP
82
C6
C6
AA
AA
92
92
82
82
82
82
ENDCHAR
STARTCHAR N
ENCODING 78
SWIDTH 562 0
DWIDTH 9 0
BBX 7 11 0 0
BITMAP
82
C2
C2
A2
A2
92
92
8A
8A
86
86
ENDCHAR
STARTCHAR O
ENCODING 79
SWIDTH 562 0
DWIDTH 9 0
BBX 7 11 0 0
BITMAP
38
44
82
82
82
82
82
82
82
44
38
ENDCHAR
STARTCHAR P
ENCODING 80
SWIDTH 500 0
DWIDTH 8 0
BBX 6 11 0 0
BITMAP
F0
88
84
84
84
88
F0
80
80
80
80
ENDCHAR
STARTCHAR Q
ENCODING 81
SWIDTH 562 0
DWIDTH 9 0
BBX 8 12 0 -1
BITMAP
38
44
82
82
82
82
82
82
8A
44
3A
01
ENDCHAR
STARTCHAR R
ENCODING 82
SWIDTH 500 0
DWIDTH 8 0
BBX 6 11 0 0
BITMAP
F0
88
84
84
84
88
F0
88
84
84
84
ENDCHAR
STARTCHAR S
ENCODING 83
SWIDTH 500 0
DWIDTH 8 0
BBX 6 11 0 0
BITMAP
78
84
80
80
80
78
04
04
04
84
78
ENDCHAR
STARTCHAR T
ENCODING 84
SWIDTH 562 0
DWIDTH 9 0
BBX 7 11 0 0
BITMAP
FE
10
10
10
10
10
10
10
10
10
10
ENDCHAR
STARTCHAR U
ENCODING 85
SWIDTH 562 0
DWIDTH 9 0
BBX 7 11 0 0
BITMAP
82
82
82
82
82
82
82
82
82
44
38
ENDCHAR
STARTCHAR V
ENCODING 86
SWIDTH 562 0
DWIDTH 9 0
BBX 7 11 0 0
BITMAP
82
82
82
82
82
82
82
82
44
28
10
ENDCHAR
STARTCHAR W
ENCODING 87
SWIDTH 688 0
DWIDTH 11 0
BBX 9 11 0 0
BITMAP
8080
8080
8080
8080
8080
8080
8080
8880
8880
5500
2200
ENDCHAR
STARTCHAR X
ENCODING 88
SWIDTH 688 0
DWIDTH 11 0
BBX 9 11 0 0
BITMAP
8080
8080
4100
2200
1400
0800
1400
2200
4100
8080
8080
ENDCHAR
STARTCHAR Y
ENCODING 89
SWIDTH 688 0
DWIDTH 11 0
BBX 9 11 0 0
BITMAP
8080
8080
4100
2200
1400
0800
0800
0800
0800
0800
0800
ENDCHAR
STARTCHAR Z
ENCODING 90
SWIDTH 688 0
DWIDTH 11 0
BBX 9 11 0 0
BITMAP
FF80
0080
0100
0200
0400
0800
1000
2000
4000
8000
FF80
ENDCHAR
STARTCHAR bracketleft
ENCODING 91
SWIDTH 312 0
DWIDTH 5 0
BBX 3 11 0 0
BITMAP
E0
80
80
80
80
80
80
80
80
80
E0
ENDCHAR
STARTCHAR backslash
ENCODING 92
SWIDTH 500 0
DWIDTH 8 0
BBX 6 11 0 0
BITMAP
80
80
40
40
20
20
10
10
08
08
04
ENDCHAR
STARTCHAR bracketright
ENCODING 93
SWIDTH 312 0
DWIDTH 5 0
BBX 3 11 0 0
BITMAP
E0
20
20
20
20
20
20
20
20
20
E0
ENDCHAR
STARTCHAR asciicircum
ENCODING 94
SWIDTH 437 0
DWIDTH 5 0
BBX 3 2 0 11
BITMAP
40
A0
ENDCHAR
STARTCHAR underscore
ENCODING 95
SWIDTH 312 0
DWIDTH 5 0
BBX 5 1 0 0
BITMAP
F8
ENDCHAR
STARTCHAR grave
ENCODING 96
SWIDTH 250 0
DWIDTH 4 0
BBX 2 2 0 11
BITMAP
80
40
ENDCHAR
STARTCHAR a
ENCODING 97
SWIDTH 437 0
DWIDTH 7 0
BBX 5 7 0 0
BITMAP
70
88
08
78
88
98
68
ENDCHAR
STARTCHAR b
ENCODING 98
SWIDTH 500 0
DWIDTH 8 0
BBX 6 11 0 0
BITMAP
80
80
80
80
B8
C4
84
84
84
84
F8
ENDCHAR
STARTCHAR c
ENCODING 99
SWIDTH 437 0
DWIDTH 7 0
BBX 5 7 0 0
BITMAP
70
88
80
80
80
88
70
ENDCHAR
STARTCHAR d
ENCODING 100
SWIDTH 500 0
DWIDTH 8 0
BBX 6 11 0 0
BITMAP
04
04
04
04
7C
84
84
84
84
84
7C
ENDCHAR
STARTCHAR e
ENCODING 101
SWIDTH 500 0
DWIDTH 8 0
BBX 6 7 0 0
BITMAP
78
84
84
F8
80
84
78
ENDCHAR
STARTCHAR n
ENCODING 110
SWIDTH 500 0
DWIDTH 8 0
BBX 6 7 0 0
BITMAP
70
88
84
84
84
84
84
ENDCHAR
STARTCHAR o
ENCODING 111
SWIDTH 500 0
DWIDTH 8 0
BBX 6 7 0 0
BITMAP
78
84
84
84
84
84
78
ENDCHAR
STARTCHAR u
ENCODING 117
SWIDTH 500 0
DWIDTH 8 0
BBX 6 6 0 0
BITMAP
84
84
84
84
84
78
ENDCHAR
STARTCHAR v
ENCODING 118
SWIDTH 500 0
DWIDTH 8 0
BBX 6 6 0 0
BITMAP
84
84
48
48
30
30
ENDCHAR
STARTCHAR w
ENCODING 119
SWIDTH 500 0
DWIDTH 9 0
BBX 7 6 0 0
BITMAP
82
82
54
54
28
28
ENDCHAR
STARTCHAR asciitilde
ENCODING 126
SWIDTH 500 0
DWIDTH 8 0
BBX 6 2 0 7
BITMAP
64
98
ENDCHAR
STARTCHAR uni00A0
ENCODING 160
SWIDTH 0 0
DWIDTH 0 0
BBX 1 1 0 0
BITMAP
00
ENDCHAR
STARTCHAR cent
ENCODING 162
SWIDTH 437 0
DWIDTH 7 0
BBX 5 11 0 -2
BITMAP
20
20
70
A8
A0
A0
A0
A8
70
20
20
ENDCHAR
STARTCHAR Euro
ENCODING 164
SWIDTH 500 0
DWIDTH 8 0
BBX 9 11 -2 0
BITMAP
0F00
1080
2000
2000
F800
2000
F800
2000
2000
1080
0F00
ENDCHAR
STARTCHAR yen
ENCODING 165
SWIDTH 688 0
DWIDTH 11 0
BBX 9 11 0 0
BITMAP
8080
8080
4100
2200
1400
0800
7F00
0800
7F00
0800
0800
ENDCHAR
STARTCHAR Scaron
ENCODING 166
SWIDTH 500 0
DWIDTH 8 0
BBX 6 14 0 0
BITMAP
50
20
00
78
84
80
80
80
78
04
04
04
84
78
ENDCHAR
STARTCHAR Zcaron
ENCODING 180
SWIDTH 688 0
DWIDTH 11 0
BBX 9 14 0 0
BITMAP
1400
0800
0000
FF80
0080
0100
0200
0400
0800
1000
2000
4000
8000
FF80
ENDCHAR
STARTCHAR questiondown
ENCODING 191
SWIDTH 500 0
DWIDTH 8 0
BBX 6 10 0 -2
BITMAP
10
00
10
10
60
80
80
80
84
78
ENDCHAR
STARTCHAR Agrave
ENCODING 192
SWIDTH 562 0
DWIDTH 9 0
BBX 7 14 0 0
BITMAP
20
10
00
38
44
82
82
82
FE
82
82
82
82
82
ENDCHAR
STARTCHAR Aacute
ENCODING 193
SWIDTH 562 0
DWIDTH 13 0
BBX 11 11 0 0
BITMAP
0400
0E00
1F00
3180
6EC0
FEE0
79C0
3F80
1B00
0E00
0400
ENDCHAR
STARTCHAR Acircumflex
ENCODING 194
SWIDTH 562 0
DWIDTH 9 0
BBX 7 14 0 0
BITMAP
10
28
00
38
44
82
82
82
FE
82
82
82
82
82
ENDCHAR
STARTCHAR Atilde
ENCODING 195
SWIDTH 562 0
DWIDTH 13 0
BBX 11 11 0 0
BITMAP
0400
0E00
1F00
3180
6EC0
FEE0
79C0
3F80
1B00
0E00
0400
ENDCHAR
STARTCHAR Adieresis
ENCODING 196
SWIDTH 562 0
DWIDTH 9 0
BBX 7 13 0 0
BITMAP
28
00
38
44
82
82
82
FE
82
82
82
82
82
ENDCHAR
STARTCHAR Aring
ENCODING 197
SWIDTH 562 0
DWIDTH 13 0
BBX 11 11 0 0
BITMAP
0400
0E00
1F00
3180
6EC0
FEE0
79C0
3F80
1B00
0E00
0400
ENDCHAR
STARTCHAR Egrave
ENCODING 200
SWIDTH 562 0
DWIDTH 9 0
BBX 7 14 0 0
BITMAP
20
10
00
FE
80
80
80
80
F0
80
80
80
80
FE
ENDCHAR
STARTCHAR Eacute
ENCODING 201
SWIDTH 562 0
DWIDTH 9 0
BBX 7 14 0 0
BITMAP
08
10
00
FE
80
80
80
80
F0
80
80
80
80
FE
ENDCHAR
STARTCHAR Ecircumflex
ENCODING 202
SWIDTH 562 0
DWIDTH 9 0
BBX 7 14 0 0
BITMAP
10
28
00
FE
80
80
80
80
F0
80
80
80
80
FE
ENDCHAR
STARTCHAR Edieresis
ENCODING 203
SWIDTH 562 0
DWIDTH 9 0
BBX 7 13 0 0
BITMAP
28
00
FE
80
80
80
80
F0
80
80
80
80
FE
ENDCHAR
STARTCHAR Igrave
ENCODING 204
SWIDTH 188 0
DWIDTH 3 0
BBX 2 14 0 0
BITMAP
80
40
00
80
80
80
80
80
80
80
80
80
80
80
ENDCHAR
STARTCHAR Iacute
ENCODING 205
SWIDTH 188 0
DWIDTH 3 0
BBX 2 14 0 0
BITMAP
40
80
00
80
80
80
80
80
80
80
80
80
80
80
ENDCHAR
STARTCHAR Icircumflex
ENCODING 206
SWIDTH 188 0
DWIDTH 3 0
BBX 3 14 -1 0
BITMAP
40
A0
00
40
40
40
40
40
40
40
40
40
40
40
ENDCHAR
STARTCHAR Idieresis
ENCODING 207
SWIDTH 188 0
DWIDTH 3 0
BBX 3 13 -1 0
BITMAP
A0
00
40
40
40
40
40
40
40
40
40
40
40
ENDCHAR
STARTCHAR Eth
ENCODING 208
SWIDTH 562 0
DWIDTH 9 0
BBX 9 11 -2 0
BITMAP
3E00
2100
2080
2080
2080
F880
2080
2080
2080
2080
3F00
ENDCHAR
STARTCHAR Ntilde
ENCODING 209
SWIDTH 562 0
DWIDTH 13 0
BBX 11 11 0 0
BITMAP
0400
0E00
1F00
3180
6EC0
FEE0
79C0
3F80
1B00
0E00
0400
ENDCHAR
STARTCHAR Ograve
ENCODING 210
SWIDTH 562 0
DWIDTH 9 0
BBX 7 14 0 0
BITMAP
20
10
00
38
44
82
82
82
82
82
82
82
44
38
ENDCHAR
STARTCHAR Oacute
ENCODING 211
SWIDTH 562 0
DWIDTH 9 0
BBX 7 14 0 0
BITMAP
08
10
00
38
44
82
82
82
82
82
82
82
44
38
ENDCHAR
STARTCHAR Ocircumflex
ENCODING 212
SWIDTH 562 0
DWIDTH 9 0
BBX 7 14 0 0
BITMAP
10
28
00
38
44
82
82
82
82
82
82
82
44
38
ENDCHAR
STARTCHAR Otilde
ENCODING 213
SWIDTH 562 0
DWIDTH 13 0
BBX 11 11 0 0
BITMAP
0400
0E00
1F00
3180
6EC0
FEE0
79C0
3F80
1B00
0E00
0400
ENDCHAR
STARTCHAR Odieresis
ENCODING 214
SWIDTH 562 0
DWIDTH 9 0
BBX 7 13 0 0
BITMAP
28
00
38
44
82
82
82
82
82
82
82
44
38
ENDCHAR
STARTCHAR Ugrave
ENCODING 217
SWIDTH 562 0
DWIDTH 9 0
BBX 7 14 0 0
BITMAP
20
10
00
82
82
82
82
82
82
82
82
82
44
38
ENDCHAR
STARTCHAR Uacute
ENCODING 218
SWIDTH 562 0
DWIDTH 9 0
BBX 7 14 0 0
BITMAP
08
10
00
82
82
82
82
82
82
82
82
82
44
38
ENDCHAR
STARTCHAR Ucircumflex
ENCODING 219
SWIDTH 562 0
DWIDTH 9 0
BBX 7 14 0 0
BITMAP
10
28
00
82
82
82
82
82
82
82
82
82
44
38
ENDCHAR
STARTCHAR Udieresis
ENCODING 220
SWIDTH 562 0
DWIDTH 9 0
BBX 7 13 0 0
BITMAP
28
00
82
82
82
82
82
82
82
82
82
44
38
ENDCHAR
STARTCHAR Yacute
ENCODING 221
SWIDTH 688 0
DWIDTH 0 0
BBX 9 14 0 0
BITMAP
0400
0800
0000
8080
8080
4100
2200
1400
0800
0800
0800
0800
0800
0800
ENDCHAR
STARTCHAR agrave
ENCODING 224
SWIDTH 437 0
DWIDTH 7 0
BBX 5 10 0 0
BITMAP
40
20
00
70
88
08
78
88
98
68
ENDCHAR
STARTCHAR aacute
ENCODING 225
SWIDTH 437 0
DWIDTH 7 0
BBX 5 10 0 0
BITMAP
10
20
00
70
88
08
78
88
98
68
ENDCHAR
STARTCHAR acircumflex
ENCODING 226
SWIDTH 437 0
DWIDTH 7 0
BBX 5 10 0 0
BITMAP
20
50
00
70
88
08
78
88
98
68
ENDCHAR
STARTCHAR atilde
ENCODING 227
SWIDTH 437 0
DWIDTH 13 0
BBX 11 11 0 0
BITMAP
0400
0E00
1F00
3180
6EC0
FEE0
79C0
3F80
1B00
0E00
0400
ENDCHAR
STARTCHAR adieresis
ENCODING 228
SWIDTH 437 0
DWIDTH 7 0
BBX 5 9 0 0
BITMAP
50
00
70
88
08
78
88
98
68
ENDCHAR
STARTCHAR aring
ENCODING 229
SWIDTH 437 0
DWIDTH 13 0
BBX 11 11 0 0
BITMAP
0400
0E00
1F00
3180
6EC0
FEE0
79C0
3F80
1B00
0E00
0400
ENDCHAR
STARTCHAR egrave
ENCODING 232
SWIDTH 500 0
DWIDTH 8 0
BBX 6 10 0 0
BITMAP
20
10
00
78
84
84
F8
80
84
78
ENDCHAR
STARTCHAR eacute
ENCODING 233
SWIDTH 500 0
DWIDTH 8 0
BBX 6 10 0 0
BITMAP
08
10
00
78
84
84
F8
80
84
78
ENDCHAR
STARTCHAR ecircumflex
ENCODING 234
SWIDTH 500 0
DWIDTH 8 0
BBX 6 10 0 0
BITMAP
20
50
00
78
84
84
F8
80
84
78
ENDCHAR
STARTCHAR edieresis
ENCODING 235
SWIDTH 500 0
DWIDTH 8 0
BBX 6 9 0 0
BITMAP
28
00
78
84
84
F8
80
84
78
ENDCHAR
STARTCHAR ntilde
ENCODING 241
SWIDTH 500 0
DWIDTH 13 0
BBX 11 11 0 0
BITMAP
0400
0E00
1F00
3180
6EC0
FEE0
79C0
3F80
1B00
0E00
0400
ENDCHAR
STARTCHAR ograve
ENCODING 242
SWIDTH 500 0
DWIDTH 0 0
BBX 6 10 0 0
BITMAP
20
10
00
78
84
84
84
84
84
78
ENDCHAR
STARTCHAR oacute
ENCODING 243
SWIDTH 500 0
DWIDTH 0 0
BBX 6 10 0 0
BITMAP
10
20
00
78
84
84
84
84
84
78
ENDCHAR
STARTCHAR ocircumflex
ENCODING 244
SWIDTH 500 0
DWIDTH 0 0
BBX 6 10 0 0
BITMAP
20
50
00
78
84
84
84
84
84
78
ENDCHAR
STARTCHAR otilde
ENCODING 245
SWIDTH 500 0
DWIDTH 13 0
BBX 11 11 0 0
BITMAP
0400
0E00
1F00
3180
6EC0
FEE0
79C0
3F80
1B00
0E00
0400
ENDCHAR
STARTCHAR odieresis
ENCODING 246
SWIDTH 500 0
DWIDTH 0 0
BBX 6 9 0 0
BITMAP
50
00
78
84
84
84
84
84
78
ENDCHAR
STARTCHAR ugrave
ENCODING 249
SWIDTH 500 0
DWIDTH 0 0
BBX 6 9 0 0
BITMAP
20
10
00
84
84
84
84
84
78
ENDCHAR
STARTCHAR uacute
ENCODING 250
SWIDTH 500 0
DWIDTH 0 0
BBX 6 9 0 0
BITMAP
10
20
00
84
84
84
84
84
78
ENDCHAR
STARTCHAR ucircumflex
ENCODING 251
SWIDTH 500 0
DWIDTH 0 0
BBX 6 9 0 0
BITMAP
20
50
00
84
84
84
84
84
78
ENDCHAR
STARTCHAR udieresis
ENCODING 252
SWIDTH 500 0
DWIDTH 0 0
BBX 6 9 0 0
BITMAP
10
20
00
84
84
84
84
84
78
ENDCHAR
STARTCHAR yacute
ENCODING 253
SWIDTH 1000 0
DWIDTH 13 0
BBX 11 11 0 0
BITMAP
0400
0E00
1F00
3180
6EC0
FEE0
79C0
3F80
1B00
0E00
0400
ENDCHAR
STARTCHAR ydieresis
ENCODING 255
SWIDTH 1000 0
DWIDTH 13 0
BBX 11 11 0 0
BITMAP
0400
0E00
1F00
3180
6EC0
FEE0
79C0
3F80
1B00
0E00
0400
ENDCHAR
ENDFONT
